<?xml version="1.0" standalone="no"?>
<!DOCTYPE svg PUBLIC "-//W3C//DTD SVG 20010904//EN"
 "http://www.w3.org/TR/2001/REC-SVG-20010904/DTD/svg10.dtd">
<svg version="1.0" xmlns="http://www.w3.org/2000/svg"
 width="160.000000pt" height="160.000000pt" viewBox="0 0 160.000000 160.000000"
 preserveAspectRatio="xMidYMid meet">
<metadata>
Created by potrace 1.14, written by Peter Selinger 2001-2017
</metadata>
<g transform="translate(0.000000,160.000000) scale(0.100000,-0.100000)"
fill="#000000" stroke="none">
<path d="M1155 1546 c-33 -7 -107 -29 -165 -49 -94 -33 -111 -36 -159 -28 -53
8 -198 7 -259 -3 -50 -9 -174 -63 -225 -99 -80 -57 -116 -119 -119 -207 -2
-52 5 -100 14 -100 21 0 -12 -42 -76 -98 -28 -24 -39 -43 -43 -71 -9 -62 30
-76 167 -57 97 13 114 15 187 22 l71 7 17 -33 c58 -113 183 -200 286 -200 37
0 36 7 -2 60 -30 42 -70 121 -75 148 -1 6 3 12 9 12 25 0 222 -80 258 -105
114 -79 130 -215 37 -307 -48 -47 -98 -70 -164 -73 -61 -4 -89 9 -149 66 -62
59 -95 79 -132 79 -38 0 -39 -4 -18 -54 32 -77 23 -174 -28 -306 -33 -87 -25
-105 37 -86 48 15 101 48 127 81 10 11 29 34 43 50 14 17 26 33 26 36 0 19 81
59 130 64 96 11 114 14 155 28 181 65 287 166 332 317 35 117 11 270 -64 405
-12 22 -31 56 -42 76 -74 137 -54 256 56 328 57 38 58 52 6 87 -34 22 -149 27
-238 10z"/>
</g>
</svg>
