<?xml version="1.0" encoding="UTF-8" standalone="no"?>
<!DOCTYPE svg PUBLIC "-//W3C//DTD SVG 1.1//EN" "http://www.w3.org/Graphics/SVG/1.1/DTD/svg11.dtd">
<svg width="100%" height="100%" viewBox="0 0 2048 2048" version="1.1" xmlns="http://www.w3.org/2000/svg" xmlns:xlink="http://www.w3.org/1999/xlink" xml:space="preserve" xmlns:serif="http://www.serif.com/" style="fill-rule:evenodd;clip-rule:evenodd;stroke-linejoin:round;stroke-miterlimit:2;">
    <g transform="matrix(3.37368,0,0,2.25104,-1913.94,-1068.03)">
        <g id="Background">
            <rect x="567.314" y="474.462" width="607.052" height="909.801" style="fill:rgb(105,121,141);"/>
        </g>
    </g>
    <g id="Face" transform="matrix(0.859203,0,0,0.880741,144.177,124.278)">
        <g transform="matrix(0.969096,0,0,1,29.5971,-8.0073)">
            <path d="M1404.58,1510.89C1493.08,1545.54 1572.79,1438.26 1594.89,1305.08C1620.28,1152.06 1538.03,1072.85 1422.78,1128.43C1331.22,1172.58 1318.46,1477.18 1404.58,1510.89Z" style="fill:rgb(232,171,125);"/>
        </g>
        <g transform="matrix(0.973381,0,0,1,30.9906,-1.92022)">
            <path d="M605.371,1498.1C519.946,1510.22 463.561,1450.68 448.872,1299.32C437.877,1186.03 455.656,1109.92 565.317,1132.35C699.979,1159.89 692.841,1485.7 605.371,1498.1Z" style="fill:rgb(240,185,145);"/>
        </g>
        <g transform="matrix(0.973381,0,0,1,21.1399,-22.2302)">
            <path d="M514.399,1024C512.601,1250.63 552.091,1515.37 632.356,1649.16C732.892,1816.73 835.484,1890.11 1045.01,1860.57C1216.94,1836.32 1326.4,1724.02 1393.64,1604.12C1483.16,1444.47 1495.15,1179.6 1470.92,927.527C1437.54,580.245 1361.18,422.407 1015.96,422.407C634.25,422.407 517.709,606.791 514.399,1024Z" style="fill:url(#_Linear1);"/>
        </g>
        <g transform="matrix(0.973381,0,0,1,35.0842,-5.97827)">
            <path d="M522.102,1181.9C475.003,1186.16 432.735,1157.49 442.058,1101.04C422.419,1076.38 405.576,1004.45 435.197,955.949C403.345,904.507 395.333,838.596 423.055,797.184C415.667,766.534 420.887,697.724 461.908,663.831C438.176,621.456 472.964,527.748 521.812,506.509C510.232,462.391 567.205,375.84 637.449,370.458C660.516,303.043 743.14,233.995 854.823,249.228C902.635,181.539 1044.36,178.613 1107.61,221.018C1199.17,171.192 1297.02,244.338 1328.89,318.674C1453.85,311.318 1507.67,432.33 1496.94,502.532C1535.66,521.897 1568.15,569.829 1557.83,640.26C1602.91,677.649 1614.41,740.674 1588.39,790.979C1613.42,822.471 1649.95,902.412 1603.28,959.765C1622.56,990.039 1621.45,1035.74 1591.16,1067.98C1609.41,1094.62 1590.15,1159.21 1543.03,1160.99C1532.48,1196.41 1455.07,1206.88 1436.54,1140.96C1389.43,973.394 1421.57,935.077 1394.57,803.794C1356,616.254 1215.01,532.036 1047.51,532.152C938.58,532.228 768.048,548.294 658.523,661.977C565.415,758.62 590.949,918.346 601.963,1024C610.743,1108.21 586.55,1176.08 522.102,1181.9Z" style="fill:rgb(80,53,32);"/>
        </g>
    </g>
    <defs>
        <linearGradient id="_Linear1" x1="0" y1="0" x2="1" y2="0" gradientUnits="userSpaceOnUse" gradientTransform="matrix(973.014,0,0,1444.54,514.34,1144.68)"><stop offset="0" style="stop-color:rgb(255,208,170);stop-opacity:1"/><stop offset="1" style="stop-color:rgb(240,185,145);stop-opacity:1"/></linearGradient>
    </defs>
</svg>
